<?xml version="1.0" encoding="UTF-8"?>
<svg viewBox="0 0 512 469" version="1.1" xmlns="http://www.w3.org/2000/svg" xmlns:xlink="http://www.w3.org/1999/xlink">
    <g id="Page-1" stroke="none" stroke-width="1" fill="none" fill-rule="evenodd">
        <g id="shopping-cart" fill="currentColor" fill-rule="nonzero">
            <path d="M405.387,340.907 C370.185,340.907 341.547,369.546 341.547,404.747 C341.547,439.948 370.186,468.587 405.387,468.587 C440.588,468.587 469.227,439.948 469.227,404.747 C469.227,369.546 440.588,340.907 405.387,340.907 Z M405.387,430.283 C391.304,430.283 379.851,418.83 379.851,404.747 C379.851,390.664 391.304,379.211 405.387,379.211 C419.47,379.211 430.923,390.664 430.923,404.747 C430.923,418.83 419.47,430.283 405.387,430.283 Z" id="Shape"></path>
            <path d="M507.927,94.17 C504.301,89.529 498.74,86.822 492.848,86.822 L118.22,86.822 L100.983,14.702 C98.921,6.084 91.215,0 82.354,0 L19.152,0 C8.574,0 0,8.573 0,19.151 C0,29.729 8.574,38.303 19.152,38.303 L67.237,38.303 L129.481,298.746 C131.543,307.371 139.249,313.448 148.11,313.448 L446.245,313.448 C455.049,313.448 462.722,307.447 464.835,298.905 L511.439,110.576 C512.849,104.857 511.553,98.811 507.927,94.17 Z M431.261,275.145 L163.227,275.145 L127.374,125.126 L468.377,125.126 L431.261,275.145 Z" id="Shape"></path>
            <path d="M173.646,340.907 C138.444,340.907 109.806,369.546 109.806,404.747 C109.806,439.948 138.445,468.587 173.646,468.587 C208.847,468.587 237.486,439.948 237.486,404.747 C237.486,369.546 208.847,340.907 173.646,340.907 Z M173.646,430.283 C159.563,430.283 148.11,418.83 148.11,404.747 C148.11,390.664 159.563,379.211 173.646,379.211 C187.729,379.211 199.182,390.664 199.182,404.747 C199.182,418.83 187.729,430.283 173.646,430.283 Z" id="Shape"></path>
        </g>
    </g>
</svg>